<svg xmlns="http://www.w3.org/2000/svg" viewBox="0 0 408.634 124.537"><defs><style>.cls-1{fill:#ce4b43;}.cls-2{fill:#45aad0;}.cls-3{fill:#da7343;}.cls-4{fill:#ff4338;}.cls-5{fill:#bf579d;}.cls-6{fill:#00299f;}.cls-7{fill:#f2c452;}.cls-8{fill:#d24a43;}.cls-9{fill:#1a2e31;}</style></defs><g id="Слой_1" data-name="Слой 1"><path class="cls-1" d="M78.337,85.289A39.168,39.168,0,1,1,39.169,46.124,39.169,39.169,0,0,1,78.337,85.289ZM39.169,102.932a17.644,17.644,0,1,0-16.3-10.891,17.662,17.662,0,0,0,16.3,10.891Z"/><path class="cls-2" d="M114.992,67.646v35.281h10.3v21.526H114.533a21.089,21.089,0,0,1-21.067-21.067V67.646H87.22V46.12h6.246V0h21.526V46.12h10.3V67.646Z"/><path class="cls-3" d="M137.77,23.064V.34H159.3V23.064Zm0,101.444V46.278H159.3v78.23Z"/><path class="cls-4" d="M408.634,101.586v22.725H387.107V101.586Zm0-101.444v78.23H387.107V.142Z"/><path class="cls-5" d="M242.374,46.12v78.388H220.848V122a34.414,34.414,0,0,1-47.3-31.909V46.12h21.526V90.1a12.889,12.889,0,0,0,25.778,0V46.12Z"/><path class="cls-5" d="M372.806,80.537v43.975H351.279V80.537a12.888,12.888,0,1,0-25.775,0v43.975H303.977V80.537a12.889,12.889,0,1,0-25.777,0v43.969H256.673V46.173H278.2v2.448a34.378,34.378,0,0,1,36.54,6.936,34.4,34.4,0,0,1,58.066,24.98Z"/><g id="Слой_3" data-name="Слой 3"><rect class="cls-6" x="220.849" y="46.12" width="21.525" height="78.389"/><path class="cls-2" d="M220.848,122c21.526-14.051,21.526-25.5,21.526-25.5v28H220.848Z"/></g><path class="cls-7" d="M338.392,46.145a34.288,34.288,0,0,0-23.651,9.438l0-.006-.052.385a3.59,3.59,0,0,1-.157.389,3.8,3.8,0,0,1,.607.511,4.55,4.55,0,0,1,.473.592,5.929,5.929,0,0,1,.437.576,8.259,8.259,0,0,1,.6,1.4c.059.164.095.336.156.5a5.037,5.037,0,0,1,0,2.658l-.5,1.195c-.06.1-.13.193-.2.29.428.51.853,1,1.179,1.474a50.193,50.193,0,0,1,3.162,5.309,54.338,54.338,0,0,1,4.024,9.721,4.731,4.731,0,0,1,.648.984c.132-.058.259-.124.4-.172v-.826a12.888,12.888,0,1,1,25.775,0v43.975h21.527V80.562A34.454,34.454,0,0,0,338.392,46.145Z"/><path class="cls-8" d="M314.74,55.557a33.393,33.393,0,0,0-10.763,24.98v43.975H325.5V80.537C325.5,65.119,314.74,55.557,314.74,55.557Z"/><polygon class="cls-6" points="278.2 48.621 278.2 124.506 256.673 124.506 256.673 46.173 278.2 46.173 278.2 48.621"/><path class="cls-2" d="M278.2,48.621c-19.055,6.443-21.527,22-21.527,22V46.173H278.2Z"/><rect class="cls-7" x="137.77" y="0.34" width="21.527" height="22.725"/><rect class="cls-7" x="387.107" y="101.586" width="21.527" height="22.725"/></g><g id="Слой_2" data-name="Слой 2"><rect class="cls-4" x="87.22" y="46.12" width="6.246" height="21.527"/><rect class="cls-4" x="114.992" y="46.12" width="10.304" height="21.527"/><rect class="cls-9" x="93.466" y="46.12" width="21.526" height="21.527"/></g></svg>